<svg xmlns="http://www.w3.org/2000/svg" width="200" height="200" viewBox="0 0 200 200" fill="none" >
  <path d=" M 21 56.78 V 26.34 H 51.54 V 56.78 H 21 Z  M 21 112.2 V 81.77 H 51.54 V 112.2 H 21 Z " fill="#feea3b"  />
  <path d=" M 69.6 130.63 V 13.16 H 116.3 C 129.76 13.16 141.02 15.78 150.09 21.03 159.15 26.27 165.99 33.32 170.62 42.21 175.23 51.09 177.55 60.93 177.55 71.74 177.55 83.65 175.01 94.02 169.93 102.84 164.86 111.67 157.73 118.5 148.55 123.36 139.37 128.22 128.62 130.64 116.3 130.64 H 69.6 V 130.63 Z  M 143.67 71.73 C 143.67 65.66 142.58 60.34 140.42 55.77 138.25 51.2 135.12 47.64 131.02 45.1 126.91 42.56 122.01 41.29 116.3 41.29 H 102.96 V 102.51 H 116.3 C 122.12 102.51 127.05 101.18 131.1 98.54 135.14 95.89 138.26 92.23 140.42 87.54 142.58 82.85 143.67 77.59 143.67 71.74 V 71.73 Z " fill="#feea3b"  />
  
  <polygon fill="#feea3b" points="51.5 150.5, 118.5 150.5, 84.5 192.5"  />
  <line stroke="#feea3b" stroke-width="31" x1="86" x2="86" y1="93" y2="168"  />
    <!-- <line stroke="#feea3b" stroke-width="33" x1="86" x2="86" y1="93" y2="168"  /> -->
</svg>